<svg width="93" height="34" viewBox="0 0 93 34" fill="none" xmlns="http://www.w3.org/2000/svg">
<path d="M49.2442 12.293L37.2207 33.9454H40.8331H61.1329L49.2442 12.293ZM53.935 29.8703H44.4456L49.2173 21.0273L53.935 29.8703Z" fill="#EEEEEE"/>
<path d="M29.7218 17.1156C29.7218 12.4293 27.8751 8.16398 24.8827 5.09406C21.9038 2.02415 17.7657 0.0273438 13.2097 0.0273438H0V5.47441L13.3849 5.44724C16.4043 5.44724 19.1136 7.13162 21.1085 9.16917C23.09 11.2067 24.3031 14.005 24.3031 17.1156C24.3031 20.2263 23.09 23.0245 21.1085 25.0621C19.1271 27.0997 16.4043 28.5259 13.3849 28.5259H5.41867V9.50877H0V33.9458H13.2232C17.7792 33.9458 21.9173 32.2071 24.8962 29.1372C27.8751 26.0673 29.7218 21.802 29.7218 17.1156Z" fill="#EEEEEE"/>
<path d="M53.0977 0H45.2393L26.53 33.9864H32.9462L49.1752 4.55054L65.3908 33.9864H71.8069L53.0977 0Z" fill="#EEEEEE"/>
<path d="M63.3591 0V5.44706H75.477V34H80.8552V5.44706H93.0001V0H63.3591Z" fill="#EEEEEE"/>
</svg>
